<svg xmlns="http://www.w3.org/2000/svg" viewBox="0 0 64 64"><defs><style>.cls-1{fill:#fff;fill-rule:evenodd;}</style></defs><g id="Layer_2" data-name="Layer 2"><rect width="64" height="64"/></g><g id="Layer_1" data-name="Layer 1"><path class="cls-1" d="M32.22,1.09A31.23,31.23,0,0,0,22.35,62c1.56.29,2.14-.68,2.14-1.51s0-3.2,0-5.81c-8.68,1.89-10.52-3.69-10.52-3.69-1.42-3.6-3.46-4.56-3.46-4.56-2.84-1.94.21-1.9.21-1.9,3.14.22,4.79,3.22,4.79,3.22,2.78,4.77,7.3,3.39,9.09,2.6a6.67,6.67,0,0,1,2-4.18c-6.94-.79-14.23-3.47-14.23-15.43a12.06,12.06,0,0,1,3.22-8.38,11.29,11.29,0,0,1,.3-8.27s2.63-.84,8.59,3.2a29.65,29.65,0,0,1,15.64,0c6-4,8.58-3.2,8.58-3.2a11.18,11.18,0,0,1,.3,8.27,12,12,0,0,1,3.22,8.38c0,12-7.31,14.63-14.27,15.4C39,47.06,40,49,40,51.87c0,4.18,0,7.54,0,8.57,0,.84.57,1.81,2.15,1.5A31.23,31.23,0,0,0,32.22,1.09Z"/></g></svg>