<svg xmlns="http://www.w3.org/2000/svg" xmlns:xlink="http://www.w3.org/1999/xlink" viewBox="0 0 1920 1080"><defs><style>.cls-1{fill:url(#linear-gradient);filter:url(#luminosity-noclip);}.cls-2{fill:url(#linear-gradient-2);}.cls-3{fill:#fff;}.cls-4{opacity:0.4;}.cls-5{mask:url(#mask);}.cls-6{fill:#262624;}.cls-7{fill:#f2f1f0;}.cls-8{fill:#019a43;}</style><linearGradient id="linear-gradient" x1="-118.83" y1="887.63" x2="1332.75" y2="197.55" gradientUnits="userSpaceOnUse"><stop offset="0" stop-color="#030303"/><stop offset="1" stop-color="#8b8b8b"/></linearGradient><linearGradient id="linear-gradient-2" x1="105.87" y1="961.29" x2="1904.46" y2="106.25" gradientUnits="userSpaceOnUse"><stop offset="0"/><stop offset="1" stop-color="#464646"/></linearGradient><filter id="luminosity-noclip" x="-128.08" y="-112.43" width="1397.99" height="1344.31" filterUnits="userSpaceOnUse" color-interpolation-filters="sRGB"><feFlood flood-color="#fff" result="bg"/><feBlend in="SourceGraphic" in2="bg"/></filter><mask id="mask" x="-128.08" y="-112.43" width="1397.99" height="1344.31" maskUnits="userSpaceOnUse"><rect class="cls-1" x="-128.08" y="-112.43" width="1397.99" height="1344.31"/></mask></defs><g id="Layer_1" data-name="Layer 1"><rect class="cls-2" x="-26.5" y="-23.5" width="1974" height="1157"/><path class="cls-3" d="M1947-23V1133H-26V-23H1947m1-1H-27V1134H1948V-24Z"/></g><g id="Layer_3" data-name="Layer 3" class="cls-4"><g class="cls-5"><path class="cls-6" d="M543.65,1169c-337.45,3.65-614.4-270.54-614.4-607.23C-70.63,222.5,201.33-49.14,540.37-49c340,.14,613.13,280.18,608.72,617.25C1144.53,897.05,876.05,1167.53,543.65,1169Z"/><path class="cls-7" d="M540.73,1148.23C218.08,1150.08-48.2,887.47-50.11,565.54-52,239.42,209.65-26.47,534.45-28.22c326.62-1.78,591.8,259.83,593.48,585.54C1129.63,882.34,867.28,1146.34,540.73,1148.23Z"/><path class="cls-8" d="M536.49,1128.2C219.81,1124.75-33.1,868.51-28,551.47-23.72,250.83,215.06,6.09,515.52-5.6c161.76-6.54,303.18,47,419.8,160.09,114.79,111.32,173.79,249.24,172.38,408.25C1104.8,886.53,845,1128.41,536.49,1128.2Z"/><path class="cls-7" d="M538.93,1108.52c-302.27,0-551.39-246.67-547.63-554.91C-5.06,253.85,240.8,10.58,544.59,13c300,2.39,546.79,247.44,543.58,553.6C1085,868.87,838.4,1109.12,538.93,1108.52Z"/><path class="cls-8" d="M538.19,202.88c197.3.4,358.81,155.15,360,355.59,1.27,205.17-164.59,359.87-359.81,360.15-196.71.31-357.09-161-357.25-358.85C181.1,364.31,342.37,203.11,538.19,202.88Z"/><path class="cls-6" d="M514,107.47v73.6H491.2c1.17-35.32,2.4-70.16,3.47-105.43,7.39,0,14.4-.17,21.4.14a6.88,6.88,0,0,1,4.36,2.91Q542.36,109.4,564,140.24c2.23,3.17,3.67,6.9,7.5,10.34V78h23.27c-1.08,35.34-2.16,70.35-3.24,105.5-7,0-13.31.31-19.55-.17a9,9,0,0,1-5.51-3.7q-22.38-30.83-44.42-61.94a87.55,87.55,0,0,1-5.5-10.46Z"/><path class="cls-6" d="M108.73,630.92c30.65-.17,55.91,25.52,56,56.92a55.47,55.47,0,0,1-54.83,56c-30.63.31-56.66-26.14-56.49-57.52A55.4,55.4,0,0,1,108.73,630.92Z"/><path class="cls-6" d="M870.75,306l-36.16,25.36-13.66-18.07,86.27-62.81c9,13.75,18.77,26.79,26.51,40.95,6.85,12.54,3.19,24.35-7.64,33.15s-23.25,9.58-35,1.55c-.81-.55-1.7-1.05-3.31-2.08l-21.57,51c-5-6.78-9.58-12.44-13.39-18.62a9.92,9.92,0,0,1,.38-7.67c6.09-14,12.49-27.87,18.79-41.77C871.35,307,872.07,305.11,870.75,306Z"/><path class="cls-6" d="M416.37,89.16l21.86-6.35c4.94,17.23,9.87,33.84,14.38,50.57a170.45,170.45,0,0,1,6,26.88c1.54,14.22-4.52,26.1-17.3,31.93a117.57,117.57,0,0,1-35.95,10.11,30.18,30.18,0,0,1-32.88-21c-8.34-23.8-14.95-48.2-22.48-73l22.12-6.47c4.8,16.6,9.37,32.73,14.12,48.79a136.77,136.77,0,0,0,6.28,18.69c4.79,10.4,13.73,14.19,24.92,11.31,12.15-3.09,19.17-10.37,17.5-21.71-1.82-12.68-5.85-25.07-9.18-37.5C422.77,110.75,419.56,100.23,416.37,89.16Z"/><path class="cls-6" d="M178.49,400.13c-2.39,7.55-4.17,14.65-6.83,21.43-.64,1.68-3.88,3.07-6.06,3.28-18.57,1.78-18.57,1.68-24.4,19.41-.14.51-.41,1-.57,1.47-5.75,18.14-5.68,18.14,9.1,30.12a7.77,7.77,0,0,1,2.78,6.16c-1.46,6.35-3.78,12.51-6.13,19.84-9.37-7.4-18.21-14.26-26.94-21.21-18.81-14.88-37.5-29.91-56.46-44.57-4.15-3.19-5.46-5.83-3.62-11.07,6.4-18.17,6.16-18.22,25.4-19.39q43.79-2.69,87.6-5.47C174.15,400,176,400.13,178.49,400.13Z"/><path class="cls-6" d="M137.34,862.83l-12.63-19.17,37.39-24.3-.38-1.54c-14.6-.91-29.22-2.39-43.81-2.39-9,0-15-2.69-18.74-10.86a133.34,133.34,0,0,0-7.5-12.39c12,1,22.5,1.87,33,2.81,7.39.64,14.77,1.24,22.08,2.22,4.41.6,6.51-.86,8.22-5.08,7-17.37,14.38-34.55,21.76-51.81.79-1.84,1.75-3.59,3.16-6.49,4.79,7.55,9.39,13.94,13.16,20.8,1,1.7,0,5-.91,7.19-7.7,17.28-15.6,34.48-24.42,53.85l45.94-29.36c4.1,6.21,8.07,12.22,12.58,19Z"/><path class="cls-6" d="M966.57,678.68l-19.18-3.47c2.4-12.85,4.53-25.38,7-38.9l-25.45-4.7c-2.54,13.47-4.91,26-7.33,38.95L902.39,667c3.81-20.56,7.55-40.59,11.41-61.47L1018,624.66c-3.79,20.71-7.4,40.58-11.19,61.21l-19-3.23c2.4-13.09,4.58-25.62,6.95-38.92l-21-3.79C971.36,653,969.06,665.36,966.57,678.68Z"/><path class="cls-6" d="M97.18,332.53l33.21-53,16.32,10.26L126,323.2l17.83,11.48L165,301.13l16.56,10.14-20.87,33.55,21.95,13.88c7.19-11.31,14-22.15,21.16-33.41l16.46,10.19c-11,17.66-21.78,35-33,53Z"/><path class="cls-6" d="M756.39,254.4l68.83-80.52,47.52,40.57-12.46,14.64-30.1-25.35-13.92,16,29.86,25.67-12.39,14.93L803.6,234.68l-17,19.67,29.79,25.79L804.08,295Z"/><path class="cls-6" d="M703.14,105.34c7,3.5,13.33,6.2,19.17,9.77A8.38,8.38,0,0,1,724.9,122c-3.93,25.38-8.22,50.69-12.44,76.23a23.05,23.05,0,0,0,3.62-2.68c16.61-17.33,33.29-34.58,49.71-52.1,3.45-3.69,6.27-4.63,10.73-1.94,4.94,3,10.26,5.27,16.32,8.31-10,9.45-19.46,18.46-29,27.4-16.18,15.14-32.5,30.14-48.48,45.53-3.65,3.48-6.31,4-10.81,1.51-15.34-8.53-13.76-2.83-11.65-22.43C696.31,170.11,699.64,138.41,703.14,105.34Z"/><path class="cls-6" d="M67.15,510.47c-15.34,23-15.41,44.67-.89,57.76,12.92,11.62,36.67,12.51,49.92,1.87,15.22-12.23,16-33,1.94-57.69,6.62,0,13.06-.31,19.46.22a7.46,7.46,0,0,1,4.8,4.29c9,22.67,8.31,44.74-7.19,64.27-15.15,18.93-35.76,23.3-58.57,17.69C55.29,593.65,39,573.67,37.05,551.47A79,79,0,0,1,42.13,515c1.65-4.17,3.57-6.59,8.65-5.75S61.06,510,67.15,510.47Z"/><path class="cls-6" d="M958.3,783.1l-5.73-14.16c5-5.21,10-9.21,13.37-14.38a11.72,11.72,0,0,0-2.11-15.87c-5.15-4.62-10.54-2.59-15.14.89-5.9,4.43-11.17,9.58-16.92,14.26-13.8,11-27.39,12.79-39.47,5.25a29.43,29.43,0,0,1-13.9-20.23c-3.19-16.78,8.12-40.19,22.79-47,5.49-2.52,9.95-3.16,12,4.24a41.06,41.06,0,0,0,3.31,7.19c-6.35,6.19-12.87,10.88-17.11,17.16a13.12,13.12,0,0,0,2.23,18c6.13,5.37,12,2.14,17.3-1.53,4.31-3,8-6.9,12.27-10A111.25,111.25,0,0,1,948.4,716c12.87-6,28.62.36,34.89,13.08C992.16,747.17,981.07,779,958.3,783.1Z"/><path class="cls-6" d="M882.5,378.35l18,6.11c-5.42,8-7.19,16-2.92,24.33,3.18,6.23,7.52,11.09,15.41,9.89s9.1-7.43,10-13.44c1.39-9.11,1.8-18.38,3.21-27.49,2-12.58,8.79-21.23,21.57-24.44,12.36-3.1,21.57,2.39,29.43,11,12.15,13.42,14.38,30.27,6,45.37l-16.49-7.41c4.94-7.71,5.18-15.33-.31-21.56-2.73-3.14-8-6.12-11.7-5.71-3.23.34-7.19,5.08-8.55,8.75-1.82,5-1.3,10.9-2,16.37-.93,7-1.22,14.38-3.4,20.94a29.57,29.57,0,0,1-37.63,18.25,29,29,0,0,1-3.11-1.28c-16.78-7.74-28-34.05-21.79-51.31A80.78,80.78,0,0,1,882.5,378.35Z"/><path class="cls-6" d="M1019.84,583.68h-19.16c-.42-8.22-.85-16.27-1.32-25.11L914.23,562V539.18l83.88-3.69V509.85l18.58-1C1017.69,533.86,1018.75,558.26,1019.84,583.68Z"/><path class="cls-6" d="M238.41,285.56l24.94-24.93,13.3,14.76-41.84,38.78L160.52,242l17.4-15Z"/><path class="cls-6" d="M907.78,494.44c-1.68-7.86-3.14-14.74-4.79-22.41l103.36-23c1.7,7.59,3.23,14.38,5,22.28Z"/><path class="cls-6" d="M645.58,90l22.14,6.06c-9.25,34.22-18.36,67.87-27.63,102.12l-22.17-5.87C627.12,158.28,636.23,124.63,645.58,90Z"/><path class="cls-6" d="M944.71,828.13,932.06,847.3l-88.27-58.55,12.63-19.17Z"/><path class="cls-6" d="M231.22,177.26l18.43-13.57,62.5,85.51-18.62,13.54Z"/><path class="cls-6" d="M533,1059.83c12.8-5.73,18.29-16.42,22.46-29.17a19.25,19.25,0,0,0-4.08.31c-11.29,3.64-19.7.34-24.15-9.58A22.05,22.05,0,0,1,536,993.2a19.72,19.72,0,0,1,27,6.45,34.31,34.31,0,0,1,4.58,14c1.65,18.46-11.5,38.63-28.76,45A40.41,40.41,0,0,1,533,1059.83Z"/><path class="cls-6" d="M482.54,1059.71c12.77-5.83,18.5-16.32,22.31-29.46a25.93,25.93,0,0,0-3.81.65c-10.69,3.74-19,.74-24-8.68a22.12,22.12,0,0,1,7-28.06c8.48-5.85,20.22-4.94,26.36,3a34.29,34.29,0,0,1,6.47,14.12c3.67,19.17-12.51,43.5-31.51,48.26A14.64,14.64,0,0,1,482.54,1059.71Z"/><path class="cls-6" d="M584.56,1050.29c11.05-.7,22.89-1.15,33.29-1.82-2.06,8.46-3.57,9.73-13.49,9.73H571.52c3.65-3.84,6.14-6.26,8.42-8.87,6.27-7.19,12.82-14,18.5-21.57a47,47,0,0,0,7.19-14.71,12.41,12.41,0,0,0-5.06-14.65c-5.3-3.47-10.67-2.39-15.53.89a84,84,0,0,0-8.12,7.19,20.16,20.16,0,0,1,15.72-16,19.18,19.18,0,0,1,20.3,7.46,17.88,17.88,0,0,1-1.63,22c-6.67,8.12-14.22,15.53-21.57,23.12"/><path class="cls-6" d="M449.11,1003.34,438.8,1005l20.09-14.38v24.57c0,9.22-.48,18.47.16,27.65.36,5.13,2.57,10.12,4,15.32H445.27c1.2-5.44,3.36-11.43,3.67-17.5C449.64,1028.65,449.11,1016.57,449.11,1003.34Z"/><path class="cls-6" d="M1030.77,445.57a10.52,10.52,0,0,1,10.59,9.59,10.3,10.3,0,0,1-10,10.18,9.57,9.57,0,0,1-10-9.13v-.07a10,10,0,0,1,9.34-10.56Z"/><path class="cls-6" d="M672.56,71.35A9.73,9.73,0,0,1,662.71,81l-.53,0a9.3,9.3,0,0,1-9.2-9.4c0-.18,0-.36,0-.55a9.8,9.8,0,1,1,19.58-1A9.7,9.7,0,0,1,672.56,71.35Z"/><path class="cls-6" d="M957.63,860.41a10,10,0,0,1-10.19-9.84v-.39a9.76,9.76,0,0,1,9.59-9.59,10.12,10.12,0,0,1,10.25,10c0,.24,0,.49,0,.73C967,857.32,962.88,859.76,957.63,860.41Z"/><path class="cls-6" d="M226.66,142c6.19.39,9.73,3.72,10.24,9.81a9.83,9.83,0,0,1-9.56,10.08c-.12,0-.24,0-.37,0-5.63-.43-9.29-3.47-9.58-9.37a9.58,9.58,0,0,1,8.6-10.47C226.21,142,226.44,142,226.66,142Z"/><path class="cls-6" d="M410.48,66.68c-.32,9-3.89,12.39-9.59,12.39a8.69,8.69,0,0,1-9.34-8,7.68,7.68,0,0,1,0-1.59c.21-5.48,3.86-10.35,9.39-9.58C404.92,60.5,408.22,65,410.48,66.68Z"/><path class="cls-6" d="M375.13,86.55c-5.71-.55-10.16-4-9.13-9.44a14,14,0,0,1,8.6-9.23c5.39-1.3,9.59,3,9.85,8.75S380.86,85.57,375.13,86.55Z"/><path class="cls-7" d="M725.12,339.24c-7.86-15.53-7.53-22,9.2-25.86-.79,11.17,4.79,19.32,12,27,11.24,12,10.59,19.17-1.87,29.77-1.34,1.12-2.61,2.39-5.56,5H762c-1.62,14-11.93,10.35-20.32,11.54v40.64c0,11-.31,22.13,0,33.18.21,6-2,7.7-7.8,7.58-17.09-.29-34.17-.19-51.27,0-27.37.24-47.72,18.07-49.18,43.29A46.13,46.13,0,0,0,676,560.28a24.62,24.62,0,0,1,3.56,1.05l-58.41,240-1.72-.2V764.78q0-98.82.19-197.59c0-4,2.92-7.84,3.58-12,.48-2.89.46-7-1.21-8.82a8.12,8.12,0,0,0-8.12,0c-1.67,1.84-1.64,5.93-1.19,8.85s3.44,5.93,3.44,8.89q.24,116.57,0,233.14c0,.79-.12,1.58-2.1,2.82C594.76,720.56,575.46,641,556.42,562.43c9.09-3.54,17.7-5.59,24.89-10a44.61,44.61,0,0,0,19.3-50.2,46,46,0,0,0-41.78-34c-11.28-.53-22.62-.43-33.92,0-24.77.72-44.14,18.81-45.91,42.5-1.79,24.34,14.65,44.77,39.54,49.2l6.68,1.17Q496,680.59,467.12,799.37h-3c-.14-1.9-.41-3.77-.41-5.65V564.9c0-3.48,2.75-6.9,3.36-10.48.53-2.95.77-8.07-.66-8.79a11.42,11.42,0,0,0-9.66.43c-1.28.77-.41,5.79.17,8.75.53,2.59,2.92,5,2.92,7.47q.22,118,0,236c0,.76-.14,1.56-1.61,2.64q-29.58-120.15-59.24-241c3.75-.75,6.57-1.25,9.38-1.85a46.58,46.58,0,0,0,37.44-47.68,45.77,45.77,0,0,0-42.71-43.62c-18.58-1.1-37.27-.41-55.9-.53H336.66V386.09s-17.61,2.06-19.62-10.9h21l.53-2.16c-2.18-2-4.39-4-6.52-6.11-8.29-8.15-8.63-15.29-1.34-24.28a102.07,102.07,0,0,0,11.38-15.1c2.4-4.41,2.8-9.87,4.1-14.9,16.15,3.59,19.94,14.38,9.08,27.13-2,2.39-3.69,5.17-5.51,7.76-8.27,6.9-10.14,11.14-8.56,19.17-1.65-7.62.24-12,8.46-19.39l15.58-16.77c9.85,8.17,9.37,16-2.23,23-3.69,2.23-7.19,4.94-10.62,7.43,0,1.17-.93,1.85-1.67,2.59a17.23,17.23,0,0,0-2.14,3.14c.77-1,1.18-2.09,1.95-2.93l2.25-2.25,23-13c3.31,3.88,2.92,7.34-3.4,11.24-4,2.4-8.49,4.27-12.61,6.57-2.4,1.41-4.79,3.23-7.19,4.79l1.53,4.08h22.68s2.92,11.64-7.91,11.74c-15.82.14-17.23,2.59-12.27,18.21a46,46,0,0,0,70.72,22.29c13.83-10,20.2-23.17,19.51-39.85a11.11,11.11,0,0,0-4.13-7.39c-13.68-9.8-20.13-24-16.77-39,3.78-16.54,15.24-25.6,31-29.31,14.37-3.38,32.56,7.6,39,22.55a35.94,35.94,0,0,1-12.75,44.22,10.53,10.53,0,0,0-5.51,10.11c0,26.05,18.45,46.13,44.41,47.4a353.06,353.06,0,0,0,35.64,0,45.69,45.69,0,0,0,43.87-47.45c0-.91-.1-1.81-.19-2.71-.24-2.66-3.09-5.68-5.51-7.45a36.83,36.83,0,0,1-13.18-42.3c5.44-15,21.57-25.86,37-24.9,14.69.91,28.75,12.68,33.33,27.71a35.78,35.78,0,0,1-14.64,39.63,11.85,11.85,0,0,0-5.92,11.58,46.52,46.52,0,0,0,92.91,2.64c0-2.5-.36-8.13-.36-8.13h-14.9c-10.38,0-10.38-.34-8.38-12h24.12c-3.23-8.46-10.06-10.28-16-13.28-8.07-4.1-9.27-7.59-4.79-15.07,3.91,8.91,12.32,10.83,20,13.83a15.1,15.1,0,0,1,3.79,3.73c.91,1.08,1.06,2.57,1.92,3.7a24,24,0,0,0-2.11-3.89,18.28,18.28,0,0,0-3.48-3.71c-3.06-2.21-6-4.63-9.22-6.59-10.81-6.69-11.17-14.6-.67-23.15,2.18,3.14,19,29.14,22.88,31.15"/><path class="cls-7" d="M107.12,720.74a33.17,33.17,0,0,1-33.36-33h0c0-18.29,16.59-33.29,37-33.56a32.48,32.48,0,0,1,33.54,31.37c0,.63,0,1.26,0,1.9C144.34,705.48,127.37,720.65,107.12,720.74Z"/><path class="cls-7" d="M883.48,296.1l22.41-16.22c4.93,6.92,12,13.06,8.86,21.71a17.43,17.43,0,0,1-12.1,9.42C893.09,312.11,890,302.48,883.48,296.1Z"/><path class="cls-7" d="M870.75,306l1.44-.86A6.86,6.86,0,0,1,872,307Z"/><path class="cls-7" d="M82.1,425.51h45.71c-2.71,8.7-5.35,17.21-8.27,26.7Z"/><path class="cls-7" d="M558.56,1008.18a21.38,21.38,0,0,1,.53,6.9,19.64,19.64,0,0,1-4.53,11.48c-5.11,4.8-13.19,2.52-16.78-3.95a23.77,23.77,0,0,1-.43-22.72,13.1,13.1,0,0,1,8.67-6.54c2.71-.29,7.05,2.66,8.56,5.34A29.6,29.6,0,0,1,558.56,1008.18Z"/><path class="cls-7" d="M507.78,1009.4a17.79,17.79,0,0,1,.5,7.91c-.94,5.51-1.77,10.52-9.35,11.22a12.83,12.83,0,0,1-7.43-1.54c-9-5.46-9.58-26-.91-32.21,5-3.61,10-2.39,12.8,2.69A59.1,59.1,0,0,1,507.78,1009.4Z"/><path class="cls-8" d="M349.48,347.43c-5.87,7.48-12.36,14.79-5.44,25.12-7.47-9.16-5-20.23,5.54-25Z"/><path class="cls-8" d="M728.14,363.2c5.27,3.81,5.29,3.89,2.56,10.28-.86-3.64-1.68-7-2.4-10.35Z"/><path class="cls-8" d="M351,363.2c-.79,3.24-1.56,6.47-2.71,11.12-2.56-5.25-2.08-8.67,2-11.64Z"/><path class="cls-8" d="M728.23,363.2,725.07,360l.12-.14,3,3.37Z"/><path class="cls-8" d="M350.32,362.72l1.9-1.65.36.55L351,363.2Q350.7,362.94,350.32,362.72Z"/></g></g></svg>