<svg id="Layer_1" data-name="Layer 1" xmlns="http://www.w3.org/2000/svg" viewBox="0 0 256 64"><defs><style>.cls-1{fill:#262624;}.cls-2{fill:#f2f1f0;}.cls-3{fill:#019a43;}.cls-4{fill:#fff;}</style></defs><path class="cls-1" d="M29.27,60A27.57,27.57,0,1,1,56.68,32.8,27.57,27.57,0,0,1,29.27,60Z"/><path class="cls-2" d="M29.13,59.06A26.63,26.63,0,1,1,55.72,32.31,26.67,26.67,0,0,1,29.13,59.06Z"/><path class="cls-3" d="M28.94,58.15A25.68,25.68,0,0,1,28,6.82a24.93,24.93,0,0,1,19,7.25,24.62,24.62,0,0,1,7.8,18.48A25.67,25.67,0,0,1,28.94,58.15Z"/><path class="cls-2" d="M29.05,57.26A24.8,24.8,0,1,1,53.92,32.73,24.81,24.81,0,0,1,29.05,57.26Z"/><path class="cls-3" d="M29,16.26A16.2,16.2,0,1,1,12.86,32.42,16.18,16.18,0,0,1,29,16.26Z"/><path class="cls-1" d="M28,12v3.33H27c.05-1.6.11-3.18.16-4.77h1a.39.39,0,0,1,.2.13l2,2.79a2.11,2.11,0,0,0,.34.47V10.62h1.05c-.05,1.6-.1,3.19-.14,4.78-.32,0-.61,0-.89,0a.39.39,0,0,1-.25-.17c-.68-.93-1.35-1.86-2-2.8A4.23,4.23,0,0,1,28.1,12Z"/><path class="cls-1" d="M9.58,35.64a2.56,2.56,0,0,1,2.53,2.58,2.51,2.51,0,0,1-2.48,2.53,2.59,2.59,0,0,1-2.56-2.6A2.51,2.51,0,0,1,9.58,35.64Z"/><path class="cls-1" d="M44.08,20.93l-1.64,1.15-.62-.82,3.91-2.85c.4.63.85,1.22,1.2,1.86a1.12,1.12,0,0,1-.35,1.5,1.24,1.24,0,0,1-1.58.07l-.15-.1-1,2.31c-.22-.3-.43-.56-.61-.84a.47.47,0,0,1,0-.35L44.13,21S44.14,20.89,44.08,20.93Z"/><path class="cls-1" d="M23.5,11.11l1-.29c.23.78.45,1.54.66,2.29a8.58,8.58,0,0,1,.27,1.22,1.37,1.37,0,0,1-.79,1.45,5.33,5.33,0,0,1-1.63.45,1.35,1.35,0,0,1-1.48-1c-.38-1.08-.68-2.18-1-3.3l1-.3c.22.75.42,1.48.64,2.21a6.5,6.5,0,0,0,.28.85.89.89,0,0,0,1.13.51c.55-.14.87-.47.79-1a14,14,0,0,0-.41-1.7Z"/><path class="cls-1" d="M12.73,25.19c-.1.34-.18.66-.3,1,0,.08-.18.14-.28.15-.84.08-.84.08-1.1.88l0,.06c-.26.83-.26.83.41,1.37a.34.34,0,0,1,.13.28c-.07.28-.17.56-.28.9l-1.22-1c-.85-.68-1.7-1.36-2.55-2a.38.38,0,0,1-.17-.5c.29-.83.28-.83,1.15-.88l4-.25Z"/><path class="cls-1" d="M10.87,46.14l-.57-.87L12,44.17V44.1c-.67,0-1.33-.11-2-.11a.82.82,0,0,1-.85-.49,4.65,4.65,0,0,0-.34-.56l1.5.13c.33,0,.67,0,1,.1s.29,0,.37-.23c.32-.79.65-1.57,1-2.35,0-.08.08-.16.14-.29.22.34.43.63.6.94a.45.45,0,0,1-.05.33c-.34.78-.7,1.56-1.1,2.43l2.08-1.33c.18.29.36.56.57.86Z"/><path class="cls-1" d="M48.41,37.8l-.86-.16c.1-.58.2-1.14.31-1.76l-1.15-.21c-.12.61-.22,1.18-.33,1.76l-.87-.16c.17-.93.34-1.84.51-2.78l4.72.87c-.17.93-.33,1.83-.5,2.77L49.38,38c.1-.59.2-1.16.31-1.76l-.95-.17C48.63,36.64,48.53,37.2,48.41,37.8Z"/><path class="cls-1" d="M9.05,22.13l1.51-2.4.74.47-.94,1.51.81.52.95-1.52.75.46-.94,1.52,1,.62,1-1.51.75.46-1.5,2.4Z"/><path class="cls-1" d="M38.9,18.59,42,15l2.16,1.83-.57.67L42.24,16.3l-.63.72L43,18.19l-.56.67L41,17.7l-.77.89,1.35,1.17-.56.67Z"/><path class="cls-1" d="M36.49,11.84c.32.16.6.29.87.45a.39.39,0,0,1,.11.31c-.18,1.15-.37,2.3-.56,3.45a.61.61,0,0,0,.16-.12c.76-.78,1.51-1.57,2.25-2.36a.34.34,0,0,1,.49-.09c.22.14.46.24.74.38L39.24,15.1,37,17.16a.35.35,0,0,1-.49.07c-.69-.39-.62-.13-.52-1C36.18,14.78,36.33,13.34,36.49,11.84Z"/><path class="cls-1" d="M7.69,30.19c-.69,1-.69,2,0,2.61a1.88,1.88,0,0,0,2.26.09c.69-.56.73-1.5.09-2.62.3,0,.59,0,.88,0a.34.34,0,0,1,.22.2,2.75,2.75,0,0,1-.33,2.91,2.41,2.41,0,0,1-2.65.8A2.46,2.46,0,0,1,6.33,32a3.7,3.7,0,0,1,.23-1.65c.08-.19.16-.3.39-.26S7.42,30.17,7.69,30.19Z"/><path class="cls-1" d="M48,42.53l-.26-.64a7.17,7.17,0,0,0,.61-.65.53.53,0,0,0-.1-.72.5.5,0,0,0-.69,0c-.26.2-.5.43-.76.64a1.47,1.47,0,0,1-1.79.24,1.35,1.35,0,0,1-.63-.91,2.21,2.21,0,0,1,1-2.13c.25-.11.45-.14.55.19a2,2,0,0,0,.15.33,5.22,5.22,0,0,0-.78.78.59.59,0,0,0,.1.81c.28.24.54.1.79-.07s.36-.31.55-.45a5.42,5.42,0,0,1,.78-.5,1.23,1.23,0,0,1,1.58.59A1.85,1.85,0,0,1,48,42.53Z"/><path class="cls-1" d="M44.61,24.2l.81.28a1,1,0,0,0-.13,1.1A.66.66,0,0,0,46,26c.35-.05.41-.34.45-.61s.08-.83.15-1.24a1.24,1.24,0,0,1,1-1.11,1.31,1.31,0,0,1,1.34.5,1.7,1.7,0,0,1,.27,2.05l-.75-.33a.76.76,0,0,0,0-1,.79.79,0,0,0-.53-.26c-.15,0-.33.23-.39.4a3.57,3.57,0,0,0-.09.74,5,5,0,0,1-.15.95,1.35,1.35,0,0,1-1.71.83l-.14-.06a2.09,2.09,0,0,1-1-2.32A2.81,2.81,0,0,1,44.61,24.2Z"/><path class="cls-1" d="M50.89,33.52H50c0-.38,0-.74-.06-1.14l-3.86.16v-1l3.8-.17V30.17l.84,0C50.79,31.26,50.84,32.37,50.89,33.52Z"/><path class="cls-1" d="M15.45,20l1.13-1.12.6.66-1.9,1.76L11.92,18l.79-.68Z"/><path class="cls-1" d="M45.75,29.46c-.07-.36-.14-.67-.21-1l4.67-1,.23,1Z"/><path class="cls-1" d="M33.88,11.15l1,.27c-.41,1.55-.83,3.08-1.25,4.63l-1-.27C33.05,14.24,33.46,12.72,33.88,11.15Z"/><path class="cls-1" d="M47.42,44.57l-.57.87-4-2.65.57-.87Z"/><path class="cls-1" d="M15.12,15.1l.84-.61,2.83,3.87-.85.61Z"/><path class="cls-1" d="M28.79,55.06a2,2,0,0,0,1-1.32.55.55,0,0,0-.18,0,.81.81,0,0,1-1.1-.43,1,1,0,0,1,.4-1.28.91.91,0,0,1,1.23.29,1.6,1.6,0,0,1,.2.64,2.09,2.09,0,0,1-1.3,2A1.22,1.22,0,0,1,28.79,55.06Z"/><path class="cls-1" d="M26.5,55.05a1.87,1.87,0,0,0,1-1.33.47.47,0,0,0-.17,0,.81.81,0,0,1-1.09-.4,1,1,0,0,1,.32-1.27.88.88,0,0,1,1.19.14,1.57,1.57,0,0,1,.3.64A2.09,2.09,0,0,1,26.63,55Z"/><path class="cls-1" d="M31.12,54.64l1.51-.08c-.1.38-.17.44-.61.44H30.53c.16-.17.28-.28.38-.4.28-.33.58-.64.84-1a2.3,2.3,0,0,0,.32-.67.55.55,0,0,0-.23-.66.59.59,0,0,0-.7,0,3.8,3.8,0,0,0-.37.33.92.92,0,0,1,.71-.73.88.88,0,0,1,.92.34.81.81,0,0,1-.07,1c-.3.37-.64.7-1,1"/><path class="cls-1" d="M24.94,52.52l-.47.07.91-.65v1.11c0,.42,0,.84,0,1.26a3.06,3.06,0,0,0,.18.69h-.81a4.11,4.11,0,0,0,.17-.79C25,53.66,24.94,53.11,24.94,52.52Z"/><path class="cls-1" d="M51.32,27.25a.47.47,0,0,1,.48.43.46.46,0,0,1-.45.46.44.44,0,0,1-.46-.41h0a.46.46,0,0,1,.42-.48Z"/><path class="cls-1" d="M35.1,10.31a.44.44,0,0,1-.44.43h0a.41.41,0,0,1-.41-.43v0a.44.44,0,1,1,.88,0S35.1,10.29,35.1,10.31Z"/><path class="cls-1" d="M48,46a.46.46,0,0,1-.46-.45h0a.44.44,0,0,1,.43-.44.47.47,0,0,1,.47.45v0C48.43,45.89,48.25,46,48,46Z"/><path class="cls-1" d="M14.92,13.5a.44.44,0,0,1,.46.45.44.44,0,0,1-.43.45h0A.41.41,0,0,1,14.5,14a.42.42,0,0,1,.39-.47Z"/><path class="cls-1" d="M23.24,10.09c0,.41-.18.57-.44.57a.41.41,0,0,1-.42-.37v-.07c0-.25.18-.47.43-.43S23.14,10,23.24,10.09Z"/><path class="cls-1" d="M21.64,11c-.26,0-.46-.18-.42-.42a.63.63,0,0,1,.39-.42.37.37,0,0,1,.45.39C22.07,10.81,21.9,11,21.64,11Z"/><path class="cls-2" d="M37.48,22.45c-.35-.7-.34-1,.42-1.17a1.59,1.59,0,0,0,.54,1.22c.51.55.48.87-.08,1.35l-.25.23h1c-.07.63-.54.47-.92.52v1.84c0,.5,0,1,0,1.5,0,.27-.09.35-.35.34-.77,0-1.55,0-2.32,0a2.12,2.12,0,0,0-2.23,2,2.09,2.09,0,0,0,1.93,2.22l.16,0L32.73,43.37h-.08V41.72q0-4.48,0-8.95c0-.18.13-.36.16-.54a.58.58,0,0,0,0-.4.35.35,0,0,0-.37,0,.53.53,0,0,0-.06.4c0,.13.16.27.16.4q0,5.28,0,10.56s0,.07-.1.12L29.8,32.55a6.87,6.87,0,0,0,1.12-.45,2,2,0,0,0,.88-2.27,2.09,2.09,0,0,0-1.89-1.54c-.52,0-1,0-1.54,0a2.09,2.09,0,0,0-.29,4.15l.3.05q-1.32,5.41-2.63,10.79h0c0-.08,0-.17,0-.25V32.67c0-.16.12-.32.15-.48s0-.36,0-.4a.52.52,0,0,0-.44,0c-.06,0,0,.27,0,.4s.13.22.13.34q0,5.34,0,10.68s0,.07-.07.12q-1.34-5.44-2.68-10.91l.42-.08a2.12,2.12,0,0,0,1.7-2.16,2.09,2.09,0,0,0-1.94-2c-.84,0-1.69,0-2.53,0H20V24.56s-.86.09-.95-.59h1l-.29-.27a.7.7,0,0,1-.06-1.1,4.4,4.4,0,0,0,.51-.69,2.88,2.88,0,0,0,.19-.67c.73.16.9.65.41,1.23-.09.11-.17.23-.25.35-.38.31-.46.5-.39.87-.07-.35,0-.55.38-.88l.71-.76c.45.37.42.72-.1,1a4.14,4.14,0,0,0-.48.34s0,.08-.08.11a.6.6,0,0,0-.09.15c0-.05,0-.1.08-.14l.11-.1,1-.59c.15.18.13.34-.16.51s-.38.2-.57.3-.21.15-.32.22l.07.09h1c.18.54.14.61-.35.61-.72,0-.78.12-.56.85a2.08,2.08,0,0,0,2.65,1.34,2.11,2.11,0,0,0,.55-.3,2.05,2.05,0,0,0,.88-1.86.5.5,0,0,0-.18-.34,1.76,1.76,0,0,1-.76-1.82,1.73,1.73,0,0,1,1.4-1.36,1.72,1.72,0,0,1,1.19,3.11.47.47,0,0,0-.25.47,2.11,2.11,0,0,0,2,2.2,14.41,14.41,0,0,0,1.61,0,2.11,2.11,0,0,0,2-2.21s0-.08,0-.12a.58.58,0,0,0-.25-.35,1.74,1.74,0,0,1,1.08-3.13,1.8,1.8,0,0,1,1.51,1.29,1.7,1.7,0,0,1-.67,1.85.55.55,0,0,0-.26.54,2.1,2.1,0,0,0,4.2.12c0-.12,0-.23,0-.35H36.8c-.47,0-.47,0-.38-.54h1.09c-.14-.38-.45-.47-.72-.6s-.42-.35-.22-.69c.18.41.56.5.91.63a.69.69,0,0,1,.17.17c0,.05.05.12.09.17a1.62,1.62,0,0,0-.1-.18.85.85,0,0,0-.16-.17c-.13-.1-.27-.21-.41-.3-.49-.3-.51-.66,0-1a10.82,10.82,0,0,0,1,1.41"/><path class="cls-2" d="M9.5,39.71A1.51,1.51,0,0,1,8,38.21H8a1.63,1.63,0,0,1,1.68-1.52,1.48,1.48,0,0,1,1.52,1.42v.09A1.64,1.64,0,0,1,9.5,39.71Z"/><path class="cls-2" d="M44.65,20.48l1-.73c.22.31.54.59.4,1a.8.8,0,0,1-.55.43C45.09,21.21,45,20.77,44.65,20.48Z"/><path class="cls-2" d="M44.08,20.93l.06,0a.22.22,0,0,1,0,.08Z"/><path class="cls-2" d="M8.37,26.36h2.07l-.37,1.2Z"/><path class="cls-2" d="M29.94,52.72A1.09,1.09,0,0,1,30,53a.92.92,0,0,1-.21.52.49.49,0,0,1-.76-.18,1.08,1.08,0,0,1,0-1,.57.57,0,0,1,.39-.29.49.49,0,0,1,.39.24A1.16,1.16,0,0,1,29.94,52.72Z"/><path class="cls-2" d="M27.64,52.77a.74.74,0,0,1,0,.36c-.05.25-.08.48-.43.51a.55.55,0,0,1-.33-.07,1,1,0,0,1-.05-1.46.36.36,0,0,1,.58.12A2.37,2.37,0,0,1,27.64,52.77Z"/><path class="cls-3" d="M20.48,22.81c-.27.33-.56.66-.25,1.13a.69.69,0,0,1,.25-1.13Z"/><path class="cls-3" d="M37.62,23.52c.24.17.24.17.12.46,0-.16-.08-.31-.11-.46Z"/><path class="cls-3" d="M20.55,23.52c0,.15-.07.29-.13.5-.11-.24-.09-.39.1-.52Z"/><path class="cls-3" d="M37.62,23.52l-.14-.14h0l.13.15Z"/><path class="cls-3" d="M20.51,23.5l.09-.08,0,0-.07.07Z"/><path class="cls-3" d="M64.22,17.09H68.4v15.6h.14c.87-1.25,1.73-2.4,2.55-3.46L81,17.09h5.18L74.45,30.82,87.07,49.44H82.13L71.47,33.55,68.4,37.11V49.44H64.22Z"/><path class="cls-3" d="M111.12,37.64c0,8.59-6,12.33-11.57,12.33C93.26,50,88.41,45.36,88.41,38c0-7.78,5.09-12.34,11.53-12.34C106.61,25.68,111.12,30.53,111.12,37.64Zm-18.43.24c0,5.08,2.93,8.92,7,8.92s7.06-3.79,7.06-9c0-3.94-2-8.93-7-8.93S92.69,33.46,92.69,37.88Z"/><path class="cls-3" d="M135.89,43.11c0,2.4.05,4.51.19,6.33h-3.74l-.24-3.79H132A8.74,8.74,0,0,1,124.32,50c-3.65,0-8-2-8-10.17V26.21h4.23V39.08c0,4.41,1.34,7.39,5.18,7.39a6.12,6.12,0,0,0,5.57-3.84,6.19,6.19,0,0,0,.38-2.16V26.21h4.23Z"/><path class="cls-4" d="M142.46,44.36A14.82,14.82,0,0,0,150,46.47c4.27,0,6.77-2.26,6.77-5.52,0-3-1.73-4.75-6.1-6.44-5.28-1.87-8.54-4.6-8.54-9.16,0-5,4.17-8.79,10.46-8.79a14.66,14.66,0,0,1,7.16,1.59l-1.16,3.4A12.92,12.92,0,0,0,152.4,20c-4.42,0-6.1,2.64-6.1,4.85,0,3,2,4.51,6.44,6.24,5.47,2.11,8.25,4.75,8.25,9.5,0,5-3.69,9.31-11.33,9.31a16.69,16.69,0,0,1-8.25-2.06Z"/><path class="cls-4" d="M171.5,19.54v6.67h6.05v3.22H171.5V42c0,2.88.82,4.51,3.17,4.51a9.55,9.55,0,0,0,2.45-.29l.19,3.17a10.45,10.45,0,0,1-3.74.57A5.86,5.86,0,0,1,169,48.15c-1.2-1.25-1.63-3.31-1.63-6V29.43h-3.6V26.21h3.6V20.64Z"/><path class="cls-4" d="M203,37.64C203,46.23,197.09,50,191.47,50c-6.29,0-11.14-4.61-11.14-11.95,0-7.78,5.09-12.34,11.53-12.34C198.53,25.68,203,30.53,203,37.64Zm-18.43.24c0,5.08,2.93,8.92,7,8.92s7.06-3.79,7.06-9c0-3.94-2-8.93-7-8.93S184.61,33.46,184.61,37.88Z"/><path class="cls-4" d="M208.37,33.46c0-2.74-.05-5.09-.2-7.25h3.7l.14,4.56h.2a7,7,0,0,1,6.43-5.09,4.38,4.38,0,0,1,1.2.15v4a6.11,6.11,0,0,0-1.44-.14c-3,0-5.09,2.25-5.66,5.42a11.5,11.5,0,0,0-.2,2V49.44h-4.17Z"/><path class="cls-4" d="M225.94,38.6c.09,5.71,3.74,8.06,8,8.06a15.35,15.35,0,0,0,6.44-1.2l.72,3a18.72,18.72,0,0,1-7.73,1.44c-7.15,0-11.43-4.7-11.43-11.71S226,25.68,232.8,25.68c7.58,0,9.6,6.67,9.6,11a18.21,18.21,0,0,1-.14,2Zm12.38-3c.05-2.69-1.1-6.86-5.86-6.86-4.27,0-6.14,3.93-6.48,6.86Z"/></svg>