<svg xmlns="http://www.w3.org/2000/svg" viewBox="0 0 256 128"><defs><style>.cls-1{fill:#fff;}.cls-2{fill:#ff5a00;}.cls-3{fill:#eb001b;}.cls-4{fill:#f79e1b;}</style></defs><g id="Layer_2" data-name="Layer 2"><rect class="cls-1" x="-11" y="-13" width="282" height="157"/></g><g id="Layer_3" data-name="Layer 3"><path d="M80.48,122.61v-7.84a4.59,4.59,0,0,0-5-5A5.11,5.11,0,0,0,71.1,112a4.59,4.59,0,0,0-4.18-2.22,4.17,4.17,0,0,0-3.64,1.83v-1.51H60.54v12.48h2.74v-6.93c0-2.22,1.18-3.27,3-3.27s2.76,1.17,2.76,3.27v6.93h2.59v-6.93c0-2.22,1.32-3.27,3-3.27s2.76,1.17,2.76,3.27v6.93Zm40.65-12.48H116.7v-3.81H114v3.81h-2.43v2.43H114v5.76c0,2.87,1.18,4.56,4.33,4.56a7.43,7.43,0,0,0,3.42-.91l-.8-2.36a4.39,4.39,0,0,1-2.37.66c-1.32,0-1.84-.8-1.84-2.09v-5.62h4.42v-2.43Zm23.2-.26a3.71,3.71,0,0,0-3.27,1.82v-1.56h-2.74v12.48h2.74v-7c0-2.07.91-3.25,2.61-3.25a8.51,8.51,0,0,1,1.71.25l.79-2.6a10.5,10.5,0,0,0-1.84-.11Zm-35.1,1.24a9,9,0,0,0-5.1-1.31c-3.13,0-5.22,1.57-5.22,4,0,2.09,1.57,3.28,4.31,3.66l1.31.13c1.43.26,2.22.66,2.22,1.31,0,.91-1,1.57-2.88,1.57a7.24,7.24,0,0,1-4.18-1.31l-1.31,2.09a9.17,9.17,0,0,0,5.36,1.56c3.65,0,5.75-1.7,5.75-4s-1.7-3.39-4.31-3.79l-1.31-.13c-1.17-.14-2.08-.4-2.08-1.17,0-.92.91-1.44,2.36-1.44a9.3,9.3,0,0,1,3.92,1.06l1.16-2.23Zm72.85-1.24a3.74,3.74,0,0,0-3.28,1.82v-1.56h-2.74v12.48h2.74v-7c0-2.07.92-3.25,2.62-3.25a8.61,8.61,0,0,1,1.71.25l.79-2.57a8.2,8.2,0,0,0-1.84-.14Zm-35,6.48a6.27,6.27,0,0,0,6.66,6.53,6.6,6.6,0,0,0,4.45-1.43l-1.31-2.22a5.25,5.25,0,0,1-3.27,1.17,3.71,3.71,0,0,1-3.79-4.05,3.84,3.84,0,0,1,3.79-4,5.39,5.39,0,0,1,3.27,1.17l1.31-2.22a6.5,6.5,0,0,0-4.45-1.43,6.26,6.26,0,0,0-6.66,6.53Zm25.29,0v-6.24h-2.74v1.56a4.73,4.73,0,0,0-3.93-1.82,6.5,6.5,0,0,0,0,13,4.43,4.43,0,0,0,3.93-1.82v1.56h2.74v-6.24Zm-10,0a3.8,3.8,0,1,1,7.58,0,3.8,3.8,0,1,1-7.58,0Zm-32.73-6.62c-3.65,0-6.27,2.62-6.27,6.53a6.14,6.14,0,0,0,6.41,6.53,8,8,0,0,0,5.1-1.7l-1.31-2a6.17,6.17,0,0,1-3.66,1.31,3.54,3.54,0,0,1-3.79-3h9.27v-1.05c.13-4-2.23-6.65-5.75-6.65Zm-.06,2.42a3.05,3.05,0,0,1,3.14,3h-6.53a3.3,3.3,0,0,1,3.39-3Zm68.07,4.19V105.11h-2.74v6.53a4.74,4.74,0,0,0-3.93-1.83,6.54,6.54,0,0,0,0,13.06,4.44,4.44,0,0,0,3.93-1.83v1.57h2.74v-6.27Zm-10.06,0a3.8,3.8,0,1,1,7.58,0,3.8,3.8,0,1,1-7.58,0Zm-91.77,0v-6.24H93.11v1.56a4.73,4.73,0,0,0-3.93-1.82,6.5,6.5,0,0,0,0,13,4.43,4.43,0,0,0,3.93-1.82v1.56h2.74v-6.24Zm-10.13,0a3.8,3.8,0,1,1,7.58,0,3.8,3.8,0,1,1-7.58,0Z"/><rect id="rect19" class="cls-2" x="108.33" y="14.85" width="41.1" height="73.97"/><path class="cls-3" d="M111.06,51.8a47.15,47.15,0,0,1,17.9-37,47,47,0,1,0,0,73.94A46.94,46.94,0,0,1,111.06,51.8Z"/><path id="path22" class="cls-4" d="M205,51.8a47,47,0,0,1-76,37,47.13,47.13,0,0,0,0-73.94,47,47,0,0,1,76,37Z"/></g></svg>