<svg xmlns="http://www.w3.org/2000/svg" viewBox="0 0 256 128"><defs><style>.cls-1{fill:#fff;}.cls-2{fill:#ff671d;}.cls-3{fill:#222;}</style></defs><g id="Layer_2" data-name="Layer 2"><rect class="cls-1" x="-11" y="-13" width="282" height="157"/></g><g id="Layer_5" data-name="Layer 5"><path class="cls-2" d="M18.47,59.74a9.34,9.34,0,0,0-6.86,3.07A10,10,0,0,0,8.83,70a9.87,9.87,0,0,0,3,7.12,9.25,9.25,0,0,0,7,2.86,9.28,9.28,0,0,0,6.91-3,10.47,10.47,0,0,0-.21-14.33,9.33,9.33,0,0,0-7-2.87Z"/><path class="cls-3" d="M118.64,46.37a23,23,0,0,0-16.78,6.76A22.15,22.15,0,0,0,95,69.62a23.2,23.2,0,0,0,23.22,23.25,23.22,23.22,0,0,0,23.28-23.3,22.68,22.68,0,0,0-6.75-16.39,22,22,0,0,0-16.12-6.81Zm6.65,30.42a9.08,9.08,0,0,1-6.9,3,9.28,9.28,0,0,1-7-2.89,10.08,10.08,0,0,1-3-7.16,9.78,9.78,0,0,1,2.78-7.22,9.24,9.24,0,0,1,6.85-3.09,9.1,9.1,0,0,1,7,2.88A10.16,10.16,0,0,1,128,69.52a9.8,9.8,0,0,1-2.67,7.27ZM68.51,46.45A24.31,24.31,0,0,0,58,48.71V35H44.8V69.75A23.27,23.27,0,0,0,68.1,93,23.25,23.25,0,0,0,91.44,69.7a22.67,22.67,0,0,0-6.76-16.4A22,22,0,0,0,68.51,46.45Zm6.57,30.44a9.38,9.38,0,0,1-7,3,9.15,9.15,0,0,1-6.9-3,10.07,10.07,0,0,1-2.89-7.22,10.24,10.24,0,0,1,2.84-7.21,9.51,9.51,0,0,1,13.85,0,10.68,10.68,0,0,1,0,14.43Zm84.24-7.73V35H146.1V91.89h10.24l11.43-15.31,11.12,15.56h15.4L175.38,66.72l14.4-19.24H175Zm66.62-21.71V69.62a10.11,10.11,0,0,1-3.07,7.22,9.4,9.4,0,0,1-7,3,9.18,9.18,0,0,1-6.9-3,11.14,11.14,0,0,1-3.28-7.22V47.23h-13V69.62a21.89,21.89,0,0,0,6.69,16.45,23.27,23.27,0,0,0,39.72-16.5V47.48H225.94Z"/></g></svg>