<svg xmlns="http://www.w3.org/2000/svg" viewBox="0 0 256 128"><defs><style>.cls-1{fill:#fff;}.cls-2{fill:#253b80;}.cls-3{fill:#179bd7;}.cls-4{fill:#222d65;}</style></defs><g id="Layer_2" data-name="Layer 2"><rect class="cls-1" x="-11" y="-13" width="282" height="157"/></g><g id="Layer_4" data-name="Layer 4"><path class="cls-2" d="M97.5,48H84.94a1.75,1.75,0,0,0-1.74,1.49L78.07,82a1.05,1.05,0,0,0,1,1.22h6.1A1.75,1.75,0,0,0,87,81.69l1.29-8.14A1.75,1.75,0,0,1,90,72.06h3.86c8.57,0,13.52-4.14,14.81-12.36.58-3.6,0-6.43-1.66-8.41C105.14,49.12,101.86,48,97.5,48ZM99,60.16c-.68,4.49-4.11,4.49-7.43,4.49H89.69L91,56.27a1.05,1.05,0,0,1,1-.89h.86c2.26,0,4.39,0,5.5,1.29A4.2,4.2,0,0,1,99,60.16Z"/><path class="cls-2" d="M135.86,59.09h-6.25a1.07,1.07,0,0,0-1.05.89l-.28,1.77-.43-.63c-1.35-2-4.36-2.61-7.36-2.61-6.88,0-12.75,5.21-13.9,12.52a11.75,11.75,0,0,0,2.32,9.56c1.9,2.24,4.61,3.17,7.84,3.17a11.91,11.91,0,0,0,8.62-3.56L125.09,82a1.05,1.05,0,0,0,1,1.22h5.64a1.8,1.8,0,0,0,1.79-1.52l3.36-21.32A1.08,1.08,0,0,0,135.86,59.09ZM127,71a6.75,6.75,0,0,1-6.84,5.79,4.7,4.7,0,0,1-5-5.9,6.79,6.79,0,0,1,6.8-5.84A5.14,5.14,0,0,1,126,66.7,5.26,5.26,0,0,1,127,71Z"/><path class="cls-2" d="M167.72,59.09h-6a1.78,1.78,0,0,0-1.46.77l-8.36,12.32-3.54-11.83a1.76,1.76,0,0,0-1.69-1.26h-5.95a1,1,0,0,0-1,1.39l6.67,19.6-6.27,8.85A1.06,1.06,0,0,0,141,90.6h6a1.78,1.78,0,0,0,1.45-.76l20.15-29.09A1.06,1.06,0,0,0,167.72,59.09Z"/><path class="cls-3" d="M187.9,48H175.33a1.75,1.75,0,0,0-1.73,1.49L168.47,82a1.05,1.05,0,0,0,1,1.22h6.56a1.23,1.23,0,0,0,1.22-1l1.36-8.59a1.75,1.75,0,0,1,1.74-1.49h3.84c8.58,0,13.52-4.14,14.82-12.36.58-3.6,0-6.43-1.66-8.41C195.54,49.12,192.26,48,187.9,48Zm1.51,12.19c-.68,4.49-4.11,4.49-7.43,4.49h-1.89l1.33-8.38a1.05,1.05,0,0,1,1-.89h.86c2.26,0,4.4,0,5.5,1.29A4.2,4.2,0,0,1,189.41,60.16Z"/><path class="cls-3" d="M226.29,59.09H220a1.05,1.05,0,0,0-1,.89l-.28,1.77-.44-.63c-1.35-2-4.35-2.61-7.35-2.61C204,58.51,198.14,63.72,197,71a11.75,11.75,0,0,0,2.31,9.56c1.91,2.24,4.62,3.17,7.85,3.17a11.94,11.94,0,0,0,8.62-3.56L215.49,82a1.06,1.06,0,0,0,1,1.22h5.68A1.77,1.77,0,0,0,224,81.69l3.37-21.37A1.05,1.05,0,0,0,226.29,59.09ZM217.43,71a6.76,6.76,0,0,1-6.85,5.79,4.7,4.7,0,0,1-5-5.9,6.79,6.79,0,0,1,6.8-5.84,5.14,5.14,0,0,1,4,1.65A5.26,5.26,0,0,1,217.43,71Z"/><path class="cls-3" d="M234.09,48a1.05,1.05,0,0,0-1,.9L227.84,82a1.06,1.06,0,0,0,1,1.22h5.23a1.76,1.76,0,0,0,1.74-1.49L241,49.19A1.06,1.06,0,0,0,239.94,48Z"/><path class="cls-2" d="M25.44,88.74l1-5.92-2.16.36H13.63l7.23-45.83a.57.57,0,0,1,.2-.35.55.55,0,0,1,.38-.15H39c5.82,0,9.84,1.21,11.94,3.61A8.19,8.19,0,0,1,52.83,44a12.89,12.89,0,0,1,0,4.94l0,.15V51.8l.93.52a6.17,6.17,0,0,1,3.41,4.87,14.52,14.52,0,0,1-.21,5,17.78,17.78,0,0,1-2,5.63,11.57,11.57,0,0,1-3.23,3.54,13.23,13.23,0,0,1-4.35,2,21.54,21.54,0,0,1-5.43.63H40.61a3.88,3.88,0,0,0-3.84,3.27l-.1.53L35,88.08l-.08.38a.32.32,0,0,1-.1.22.25.25,0,0,1-.17.06Z"/><path class="cls-3" d="M54.63,49.76h0c-.05.33-.11.67-.17,1-2.28,11.69-10.07,15.73-20,15.73H29.16a2.41,2.41,0,0,0-2.37,2h0l-2.53,16-.71,4.51a1.31,1.31,0,0,0,1.29,1.51h9.09a2.08,2.08,0,0,0,2-1.76l.09-.43,1.62-10.32.11-.57a2.07,2.07,0,0,1,2.05-1.75h1.53c8.71,0,15.52-3.53,17.51-13.76.84-4.28.41-7.84-1.8-10.35A8.38,8.38,0,0,0,54.63,49.76Z"/><path class="cls-4" d="M52.22,48.79l-1.07-.28q-.55-.12-1.14-.21A28.38,28.38,0,0,0,45.53,48H32a2.22,2.22,0,0,0-.93.21,2.18,2.18,0,0,0-1.2,1.62L27,68.06l-.09.53a2.47,2.47,0,0,1,2.44-2.09h5.07c10,0,17.76-4,20-15.74q.1-.52.18-1A12.34,12.34,0,0,0,52.73,49Z"/><path class="cls-2" d="M29.78,49.8A2.14,2.14,0,0,1,31,48.18a2.22,2.22,0,0,1,.93-.21H45.49a29.79,29.79,0,0,1,4.69.34l1.2.23c.38.09.76.18,1.13.29L53,49a12.14,12.14,0,0,1,2,.83c.71-4.54,0-7.63-2.46-10.43C49.85,36.32,45,35,38.71,35h-17a2.5,2.5,0,0,0-2.47,2.11L12,83.31A1.5,1.5,0,0,0,13.43,85H24.22L26.9,68Z"/></g></svg>