<svg xmlns="http://www.w3.org/2000/svg" viewBox="0 0 256 128"><defs><style>.cls-1{fill:#fff;}.cls-2{fill:#00579f;}.cls-3{fill:#faa61a;}</style></defs><g id="Layer_2" data-name="Layer 2"><rect class="cls-1" x="-11" y="-13" width="282" height="157"/></g><g id="Layer_1" data-name="Layer 1"><g id="g4158"><polygon id="polygon9" class="cls-2" points="110.38 100.87 91.15 100.87 103.18 26.51 122.4 26.51 110.38 100.87"/><path id="path11" class="cls-2" d="M180.15,28.28a47.58,47.58,0,0,0-17.26-3.17c-19,0-32.39,10.14-32.47,24.63-.16,10.69,9.58,16.62,16.86,20.19,7.45,3.64,10,6,10,9.26-.08,5-6,7.29-11.56,7.29-7.68,0-11.8-1.19-18-4l-2.54-1.19L122.42,98c4.51,2.06,12.83,3.88,21.46,4,20.2,0,33.34-10,33.5-25.42.07-8.47-5.07-15-16.16-20.27-6.73-3.4-10.85-5.7-10.85-9.18.08-3.17,3.49-6.42,11.08-6.42a32.75,32.75,0,0,1,14.34,2.85l1.74.79,2.62-16.07Z"/><path id="path13" class="cls-2" d="M205.73,74.5l7.68-20.83c-.08.16,1.58-4.35,2.53-7.12L217.29,53s3.64,17.82,4.43,21.54Zm23.73-48H214.59c-4.58,0-8.07,1.35-10.05,6.17L176,100.87h20.16s3.33-9.19,4-11.17h24.71c.56,2.62,2.3,11.17,2.3,11.17H245L229.46,26.51Z"/><path id="path15" class="cls-2" d="M75.07,26.51,56.22,77.27,54.16,67C50.67,55.1,39.74,42.19,27.55,35.77l17.26,65.1H65.16L95.42,26.51Z"/><path id="path17" class="cls-3" d="M38.72,26.51h-31L7.44,28c24.15,6.17,40.15,21.06,46.72,39l-6.73-34.2c-1.11-4.76-4.52-6.1-8.71-6.26Z"/></g></g></svg>